<svg id="visual" viewBox="0 0 900 600" width="900" height="600" xmlns="http://www.w3.org/2000/svg" xmlns:xlink="http://www.w3.org/1999/xlink" version="1.1"><g transform="translate(399.76901516037776 267.3133075793834)"><path d="M129.5 -166.9C160.2 -155.9 172.4 -107.9 203.5 -55.8C234.6 -3.7 284.7 52.5 258.5 68.8C232.4 85.2 130 61.5 74.2 67.2C18.4 73 9.2 108 -32.1 152.2C-73.5 196.5 -146.9 249.9 -162.2 231C-177.4 212.1 -134.3 120.9 -109.3 66.5C-84.3 12.2 -77.4 -5.4 -74.6 -27.4C-71.8 -49.5 -73.2 -76.1 -61.5 -93.3C-49.8 -110.5 -24.9 -118.2 12.2 -135.1C49.4 -152 98.7 -177.9 129.5 -166.9" fill="#BB004B"></path></g></svg>