<svg id="visual" viewBox="0 0 900 600" width="900" height="600" xmlns="http://www.w3.org/2000/svg" xmlns:xlink="http://www.w3.org/1999/xlink" version="1.1"><g transform="translate(446.7592617743703 322.1150054476468)"><path d="M191.8 -257.2C236.7 -231.4 252.9 -159.4 258 -95.3C263.1 -31.1 257.1 25.2 216.8 46.1C176.6 67 102.1 52.5 60.2 88.1C18.4 123.6 9.2 209.3 -9.7 222.7C-28.6 236 -57.2 177.1 -104.4 143.3C-151.7 109.4 -217.5 100.8 -241.8 68.6C-266 36.4 -248.5 -19.4 -215 -53.6C-181.5 -87.8 -131.9 -100.5 -93.4 -128.4C-54.9 -156.2 -27.4 -199.1 23 -230.8C73.5 -262.5 146.9 -282.9 191.8 -257.2" fill="#BB004B"></path></g></svg>