<svg id="visual" viewBox="0 0 900 600" width="900" height="600" xmlns="http://www.w3.org/2000/svg" xmlns:xlink="http://www.w3.org/1999/xlink" version="1.1"><g transform="translate(473.04188076863784 271.1657131288913)"><path d="M154 -210C196.3 -181.2 225.1 -131.9 204.6 -91C184.2 -50.2 114.4 -17.8 91.6 22.9C68.9 63.6 93.2 112.7 85.8 172.8C78.4 232.9 39.2 303.9 7.2 294.1C-24.9 284.2 -49.8 193.5 -86.5 142.9C-123.3 92.4 -172 82 -209.3 48.7C-246.6 15.5 -272.6 -40.8 -247.5 -68.8C-222.4 -96.8 -146.2 -96.5 -96.4 -122.9C-46.6 -149.2 -23.3 -202.1 16.3 -224.5C55.8 -246.9 111.7 -238.7 154 -210" fill="#BB004B"></path></g></svg>