<svg id="visual" viewBox="0 0 900 600" width="900" height="600" xmlns="http://www.w3.org/2000/svg" xmlns:xlink="http://www.w3.org/1999/xlink" version="1.1"><g transform="translate(504.16441400567686 399.8429411079446)"><path d="M51.9 -112.5C71.2 -57.3 93.6 -47.5 110.2 -28.3C126.8 -9.1 137.6 19.6 122.8 32.2C108.1 44.8 67.8 41.4 43.1 41.8C18.4 42.3 9.2 46.6 -15.4 67.8C-40 89 -79.9 127 -110.4 128.4C-140.8 129.8 -161.7 94.6 -184 53.3C-206.4 12.1 -230.2 -35.2 -236.5 -95.7C-242.8 -156.1 -231.6 -229.8 -189.3 -277.5C-146.9 -325.3 -73.5 -347.1 -28.6 -307.8C16.3 -268.4 32.5 -167.8 51.9 -112.5" fill="#BB004B"></path></g></svg>