<svg id="visual" viewBox="0 0 900 600" width="900" height="600" xmlns="http://www.w3.org/2000/svg" xmlns:xlink="http://www.w3.org/1999/xlink" version="1.1"><g transform="translate(529.4460176806743 378.2508200439717)"><path d="M164.4 -265.6C181.8 -213.6 143.2 -123.8 133.9 -64.3C124.6 -4.8 144.6 24.3 131.7 36.3C118.9 48.3 73.2 43.1 45.8 51C18.4 59 9.2 80 -19.3 106.6C-47.8 133.1 -95.6 165.3 -148.6 165.6C-201.5 166 -259.6 134.6 -294.2 82.7C-328.7 30.8 -339.8 -41.6 -312.2 -93.6C-284.5 -145.6 -218.1 -177.2 -159.6 -215.8C-101.1 -254.5 -50.5 -300.2 11.5 -316C73.5 -331.8 146.9 -317.6 164.4 -265.6" fill="#BB004B"></path></g></svg>