<svg id="visual" viewBox="0 0 900 600" width="900" height="600" xmlns="http://www.w3.org/2000/svg" xmlns:xlink="http://www.w3.org/1999/xlink" version="1.1"><g transform="translate(514.0221827350211 212.11928254946673)"><path d="M107.4 -147.4C133.7 -128.7 145.8 -90 133 -59.7C120.1 -29.4 82.4 -7.4 92.8 51.7C103.2 110.8 161.8 207.1 154.4 264.8C146.9 322.6 73.5 341.8 3.9 336.4C-65.6 331 -131.3 301 -184.8 258.3C-238.4 215.5 -279.9 160 -282.9 103.2C-286 46.4 -250.4 -11.7 -208.6 -45.3C-166.8 -78.9 -118.7 -88 -82.8 -103.5C-47 -119.1 -23.5 -141 8.5 -152.8C40.6 -164.5 81.1 -166 107.4 -147.4" fill="#BB004B"></path></g></svg>