<svg id="visual" viewBox="0 0 900 600" width="900" height="600" xmlns="http://www.w3.org/2000/svg" xmlns:xlink="http://www.w3.org/1999/xlink" version="1.1"><g transform="translate(500.43053091888135 229.72167258192485)"><path d="M125.8 -166.7C143.1 -160.6 123.4 -97.2 116.5 -53.2C109.7 -9.3 115.7 15.1 126.6 59.6C137.6 104 153.4 168.5 133.1 224.4C112.9 280.3 56.4 327.7 20.7 299.2C-15.1 270.8 -30.2 166.5 -83.9 121.5C-137.6 76.4 -230 90.6 -242.3 73.8C-254.6 57 -186.7 9.2 -137.6 -14.6C-88.4 -38.4 -58 -38.2 -38.2 -43.4C-18.4 -48.6 -9.2 -59.3 22.5 -90.3C54.3 -121.4 108.5 -172.7 125.8 -166.7" fill="#BB004B"></path></g></svg>