<svg id="visual" viewBox="0 0 900 600" width="900" height="600" xmlns="http://www.w3.org/2000/svg" xmlns:xlink="http://www.w3.org/1999/xlink" version="1.1"><g transform="translate(503.55651421463483 260.35366148892587)"><path d="M41.8 -64.4C65.3 -40.5 103 -43.1 133.8 -25.3C164.5 -7.5 188.3 30.7 177.1 55.2C165.9 79.6 119.7 90.4 84.3 103.4C49 116.4 24.5 131.7 -24.5 165.4C-73.5 199.1 -146.9 251.3 -205.1 245.7C-263.3 240.1 -306.2 176.7 -278.3 123.3C-250.4 69.8 -151.9 26.3 -112.1 -18C-72.3 -62.2 -91.4 -107.2 -82.5 -135.8C-73.7 -164.4 -36.8 -176.7 -13.8 -157.7C9.2 -138.6 18.4 -88.3 41.8 -64.4" fill="#BB004B"></path></g></svg>