<svg id="visual" viewBox="0 0 900 600" width="900" height="600" xmlns="http://www.w3.org/2000/svg" xmlns:xlink="http://www.w3.org/1999/xlink" version="1.1"><g transform="translate(499.4211554368112 255.50869428907285)"><path d="M150.9 -209.6C158.3 -202.2 101.4 -108.4 109.6 -44.7C117.9 19 191.1 52.4 213.2 95.4C235.2 138.4 206.1 191 162 237.3C117.9 283.7 59 323.8 4.6 317.5C-49.8 311.2 -99.5 258.3 -156.6 216.2C-213.7 174.1 -278 142.7 -304.3 91.8C-330.7 40.9 -318.9 -29.5 -298.6 -98.6C-278.3 -167.7 -249.3 -235.5 -198.1 -228.7C-146.9 -221.9 -73.5 -140.5 -0.9 -139.2C71.7 -138 143.4 -217.1 150.9 -209.6" fill="#BB004B"></path></g></svg>