<svg id="visual" viewBox="0 0 900 600" width="900" height="600" xmlns="http://www.w3.org/2000/svg" xmlns:xlink="http://www.w3.org/1999/xlink" version="1.1"><g transform="translate(438.75585101682907 288.32773177022284)"><path d="M158.4 -166C215.3 -176.7 278.4 -143.8 297.4 -94.5C316.4 -45.1 291.3 20.7 255.4 68C219.5 115.4 172.6 144.3 128.2 146.2C83.9 148.1 41.9 123 -8.9 135.3C-59.8 147.6 -119.5 197.2 -150.1 190.8C-180.7 184.4 -182.1 122 -211.7 61.6C-241.3 1.1 -298.9 -57.4 -276.3 -78.2C-253.6 -99.1 -150.6 -82.3 -91.2 -70.8C-31.7 -59.3 -15.9 -53.1 17.4 -77.1C50.7 -101.1 101.5 -155.3 158.4 -166" fill="#BB004B"></path></g></svg>