<svg id="visual" viewBox="0 0 900 600" width="900" height="600" xmlns="http://www.w3.org/2000/svg" xmlns:xlink="http://www.w3.org/1999/xlink" version="1.1"><g transform="translate(497.1849865873479 283.3582383180144)"><path d="M134.4 -186.5C148.5 -174.7 116.6 -101.1 115.5 -50.3C114.4 0.5 144.2 28.5 153.4 65.1C162.5 101.6 150.9 146.7 121.9 151.6C92.9 156.5 46.4 121.2 -13.5 139.9C-73.5 158.5 -146.9 230.9 -158.8 220.5C-170.7 210 -121 116.6 -142.8 47C-164.5 -22.6 -257.7 -68.3 -250.4 -78.5C-243.1 -88.7 -135.4 -63.3 -76.9 -60.6C-18.4 -58 -9.2 -78 25.5 -113C60.2 -148.1 120.3 -198.2 134.4 -186.5" fill="#BB004B"></path></g></svg>