<svg id="visual" viewBox="0 0 900 600" width="900" height="600" xmlns="http://www.w3.org/2000/svg" xmlns:xlink="http://www.w3.org/1999/xlink" version="1.1"><g transform="translate(514.8116763745743 282.60093422695616)"><path d="M121 -171.4C142.9 -150.7 137.1 -96.7 135.4 -55C133.8 -13.4 136.3 15.9 125.4 38.1C114.5 60.3 90.2 75.4 67 128.4C43.9 181.4 21.9 272.2 6.4 263.4C-9.2 254.6 -18.4 146.3 -77.8 105.1C-137.3 63.9 -247 89.9 -264.4 76.4C-281.8 62.9 -207 10 -181.8 -56.4C-156.5 -122.8 -180.8 -202.5 -158.8 -223.2C-136.8 -243.9 -68.4 -205.4 -9.4 -192.5C49.6 -179.6 99.1 -192.1 121 -171.4" fill="#BB004B"></path></g></svg>