<svg id="visual" viewBox="0 0 900 600" width="900" height="600" xmlns="http://www.w3.org/2000/svg" xmlns:xlink="http://www.w3.org/1999/xlink" version="1.1"><g transform="translate(452.4544663494268 253.43915784544805)"><path d="M175.2 -219.2C203.4 -220.6 186.3 -137.8 189.4 -74.3C192.4 -10.8 215.6 33.4 193.6 51.2C171.7 69 104.7 60.4 64.9 104.4C25.1 148.5 12.5 245.3 -30.4 287.1C-73.3 328.9 -146.6 315.7 -181.6 270.1C-216.6 224.5 -213.4 146.4 -191 91.3C-168.7 36.3 -127.1 4.2 -116.1 -40.2C-105.1 -84.6 -124.5 -141.4 -110.3 -144.6C-96 -147.8 -48 -97.3 12.7 -114.9C73.5 -132.4 146.9 -217.9 175.2 -219.2" fill="#BB004B"></path></g></svg>