<svg id="visual" viewBox="0 0 900 600" width="900" height="600" xmlns="http://www.w3.org/2000/svg" xmlns:xlink="http://www.w3.org/1999/xlink" version="1.1"><g transform="translate(451.607990956122 302.8823575649456)"><path d="M91.3 -85.7C136.8 -92.7 204.9 -90.7 235.4 -61.3C266 -31.8 259 25 221.3 50.6C183.7 76.2 115.4 70.4 73.4 76.3C31.3 82.1 15.7 99.6 -26.7 136.4C-69.2 173.2 -138.3 229.4 -166.9 219.2C-195.4 208.9 -183.3 132.3 -196.4 69.2C-209.5 6.1 -247.9 -43.5 -256.1 -103.3C-264.3 -163.1 -242.4 -233.3 -194.7 -225.6C-146.9 -217.9 -73.5 -132.4 -25.3 -97.6C22.9 -62.8 45.8 -78.7 91.3 -85.7" fill="#BB004B"></path></g></svg>