<svg id="visual" viewBox="0 0 900 600" width="900" height="600" xmlns="http://www.w3.org/2000/svg" xmlns:xlink="http://www.w3.org/1999/xlink" version="1.1"><g transform="translate(453.8166259440078 219.68688861480425)"><path d="M94.3 -119.6C124.7 -107.7 153.7 -83.5 170.5 -50.9C187.4 -18.2 192.1 22.9 182.8 61.9C173.6 100.9 150.3 137.8 117.5 189.7C84.6 241.5 42.3 308.2 16.6 285.4C-9.2 262.6 -18.4 150.3 -40.7 95C-63.1 39.8 -98.6 41.7 -133.8 22.4C-169 3.2 -203.8 -37.2 -193.2 -60.5C-182.5 -83.8 -126.2 -90 -86.4 -98.9C-46.6 -107.8 -23.3 -119.4 4.3 -125.4C31.9 -131.3 63.9 -131.6 94.3 -119.6" fill="#BB004B"></path></g></svg>