<svg id="visual" viewBox="0 0 900 600" width="900" height="600" xmlns="http://www.w3.org/2000/svg" xmlns:xlink="http://www.w3.org/1999/xlink" version="1.1"><g transform="translate(421.4164771149871 364.7538058447039)"><path d="M50.2 -113.4C67.5 -56.5 85.6 -45.1 123.6 -18.7C161.7 7.6 219.7 48.9 217.3 75C214.9 101.1 152.1 112.1 105.8 118.9C59.6 125.6 29.8 128.3 -6.7 137.5C-43.1 146.7 -86.2 162.3 -93.6 142.9C-101.1 123.5 -72.8 69 -85.7 28.1C-98.5 -12.7 -152.4 -39.9 -159.4 -62.1C-166.4 -84.3 -126.4 -101.6 -92 -153C-57.6 -204.3 -28.8 -289.6 -6.2 -281.1C16.5 -272.7 32.9 -170.3 50.2 -113.4" fill="#BB004B"></path></g></svg>