<svg id="visual" viewBox="0 0 900 600" width="900" height="600" xmlns="http://www.w3.org/2000/svg" xmlns:xlink="http://www.w3.org/1999/xlink" version="1.1"><g transform="translate(481.25442865065213 365.37290587015644)"><path d="M64 -104.8C104.9 -58.4 175.1 -69.1 206.8 -49C238.4 -28.8 231.4 22 195.1 41.7C158.8 61.3 93.2 49.6 55.8 77.4C18.4 105.3 9.2 172.6 -10.8 187.5C-30.8 202.3 -61.5 164.7 -81.5 131.2C-101.5 97.7 -110.6 68.3 -152.5 28.5C-194.3 -11.2 -268.8 -61.4 -285.6 -118.4C-302.4 -175.5 -261.4 -239.4 -204.2 -280.5C-146.9 -321.6 -73.5 -339.8 -31 -297.2C11.6 -254.6 23.1 -151.2 64 -104.8" fill="#BB004B"></path></g></svg>