<svg id="visual" viewBox="0 0 900 600" width="900" height="600" xmlns="http://www.w3.org/2000/svg" xmlns:xlink="http://www.w3.org/1999/xlink" version="1.1"><g transform="translate(419.99307962260895 233.04361910376645)"><path d="M69.9 -54.7C121.4 -58.8 215.2 -79.6 218.6 -70.7C221.9 -61.8 134.7 -23.2 117.5 40.8C100.3 104.7 153 193.9 145.1 253.8C137.1 313.8 68.6 344.4 22.2 313.8C-24.1 283.2 -48.2 191.3 -56.1 131.4C-64 71.5 -55.8 43.5 -66.7 19.4C-77.7 -4.6 -107.8 -24.7 -131 -70.2C-154.2 -115.6 -170.6 -186.4 -147.6 -191.6C-124.6 -196.8 -62.3 -136.4 -26.6 -99.9C9.2 -63.3 18.4 -50.6 69.9 -54.7" fill="#BB004B"></path></g></svg>